<?xml version="1.0" encoding="UTF-8"?>
<!DOCTYPE svg PUBLIC "-//W3C//DTD SVG 1.1//EN" "http://www.w3.org/Graphics/SVG/1.1/DTD/svg11.dtd">
<svg xmlns="http://www.w3.org/2000/svg" version="1.1" width="500px" height="500px" style="shape-rendering:geometricPrecision; text-rendering:geometricPrecision; image-rendering:optimizeQuality; fill-rule:evenodd; clip-rule:evenodd" xmlns:xlink="http://www.w3.org/1999/xlink">
<g><path style="opacity:1" fill="#f5f5f5" d="M -0.5,-0.5 C 166.167,-0.5 332.833,-0.5 499.5,-0.5C 499.5,166.167 499.5,332.833 499.5,499.5C 332.833,499.5 166.167,499.5 -0.5,499.5C -0.5,332.833 -0.5,166.167 -0.5,-0.5 Z"/></g>
<g><path style="opacity:1" fill="#f1f2f2" d="M 102.5,263.5 C 102.5,264.167 102.5,264.833 102.5,265.5C 101.207,266.842 100.374,268.509 100,270.5C 99.1887,269.04 98.3554,268.707 97.5,269.5C 100.52,273.319 99.8531,275.152 95.5,275C 99.5265,278.094 99.1931,279.261 94.5,278.5C 90.424,274.91 87.2573,270.577 85,265.5C 83.338,255.899 82.6714,246.233 83,236.5C 83.5877,231.893 85.421,227.893 88.5,224.5C 92.54,220.458 96.8733,216.791 101.5,213.5C 101.833,213.667 102.167,213.833 102.5,214C 100.167,216.333 97.8333,218.667 95.5,221C 96.1667,221.667 96.8333,221.667 97.5,221C 105.178,214.663 111.345,207.163 116,198.5C 116.333,189.833 116.667,181.167 117,172.5C 120.482,161.471 127.982,154.638 139.5,152C 154.531,147.534 169.531,147.534 184.5,152C 191.951,154.739 197.117,159.572 200,166.5C 191.794,156.814 181.294,151.814 168.5,151.5C 159.76,151.212 150.76,152.212 141.5,154.5C 135.947,155.943 130.947,158.443 126.5,162C 123.509,164.99 121.343,168.49 120,172.5C 119.14,182.206 118.14,191.873 117,201.5C 112.794,208.712 107.461,215.045 101,220.5C 99.1395,222.888 97.8061,225.554 97,228.5C 97.7366,239.237 97.2366,249.904 95.5,260.5C 95.8417,262.867 96.3417,265.2 97,267.5C 98.6667,263.5 100.333,259.5 102,255.5C 102.497,258.146 102.664,260.813 102.5,263.5 Z"/></g>
<g><path style="opacity:1" fill="#e0e1e1" d="M 205.5,155.5 C 205.631,156.239 205.464,156.906 205,157.5C 204.346,156.304 203.846,156.304 203.5,157.5C 204.326,158.451 204.492,159.451 204,160.5C 203.346,159.304 202.846,159.304 202.5,160.5C 203.833,163.167 205.167,165.833 206.5,168.5C 205.39,171.923 203.724,174.256 201.5,175.5C 202.242,177.35 203.242,178.016 204.5,177.5C 203.758,179.35 202.758,180.016 201.5,179.5C 202.5,181.5 203.5,183.5 204.5,185.5C 203.289,186.72 203.289,187.887 204.5,189C 203.27,190.875 201.936,191.708 200.5,191.5C 187.683,175.953 171.683,171.453 152.5,178C 136.116,190.138 131.783,205.638 139.5,224.5C 140.35,226.494 140.85,228.494 141,230.5C 140.333,229.833 139.667,229.167 139,228.5C 137.088,229.692 135.088,230.692 133,231.5C 132.187,229.564 131.687,227.564 131.5,225.5C 129.071,225.585 127.071,226.585 125.5,228.5C 126.485,230.098 126.651,231.765 126,233.5C 125.71,231.956 125.044,230.623 124,229.5C 122.846,230.743 121.512,231.743 120,232.5C 120.326,237.44 120.492,242.44 120.5,247.5C 120.167,247.5 119.833,247.5 119.5,247.5C 118.502,238.518 118.002,229.518 118,220.5C 124.619,208.309 128.619,195.309 130,181.5C 133.755,172.744 140.255,167.244 149.5,165C 166.777,160.214 182.444,162.714 196.5,172.5C 188.311,163.817 178.144,159.484 166,159.5C 155.004,159.562 144.837,162.395 135.5,168C 132.238,170.592 129.738,173.759 128,177.5C 126.903,186.619 125.236,195.619 123,204.5C 119.081,210.67 115.414,217.003 112,223.5C 111.788,231.214 112.122,238.88 113,246.5C 112.667,244.833 112.333,243.167 112,241.5C 106.032,246.726 103.532,253.059 104.5,260.5C 104.068,261.71 103.401,262.71 102.5,263.5C 102.664,260.813 102.497,258.146 102,255.5C 100.333,259.5 98.6667,263.5 97,267.5C 96.3417,265.2 95.8417,262.867 95.5,260.5C 97.2366,249.904 97.7366,239.237 97,228.5C 97.8061,225.554 99.1395,222.888 101,220.5C 107.461,215.045 112.794,208.712 117,201.5C 118.14,191.873 119.14,182.206 120,172.5C 121.343,168.49 123.509,164.99 126.5,162C 130.947,158.443 135.947,155.943 141.5,154.5C 150.76,152.212 159.76,151.212 168.5,151.5C 181.294,151.814 191.794,156.814 200,166.5C 197.117,159.572 191.951,154.739 184.5,152C 169.531,147.534 154.531,147.534 139.5,152C 127.982,154.638 120.482,161.471 117,172.5C 116.667,181.167 116.333,189.833 116,198.5C 111.345,207.163 105.178,214.663 97.5,221C 96.8333,221.667 96.1667,221.667 95.5,221C 97.8333,218.667 100.167,216.333 102.5,214C 102.167,213.833 101.833,213.667 101.5,213.5C 96.8733,216.791 92.54,220.458 88.5,224.5C 85.421,227.893 83.5877,231.893 83,236.5C 82.6714,246.233 83.338,255.899 85,265.5C 87.2573,270.577 90.424,274.91 94.5,278.5C 96.0938,279.983 97.7605,281.483 99.5,283C 97.7445,283.14 96.0778,282.64 94.5,281.5C 94.891,282.718 94.2244,283.552 92.5,284C 93.4158,284.278 94.0825,284.778 94.5,285.5C 94.1205,286.133 93.7871,286.8 93.5,287.5C 83.3679,283.355 74.5346,277.355 67,269.5C 56.5216,254.784 57.0216,240.617 68.5,227C 75.5592,221.609 82.8926,216.609 90.5,212C 91.8333,212 93.1667,212 94.5,212C 95.6341,210.984 95.3008,210.317 93.5,210C 100.483,204.534 104.15,197.367 104.5,188.5C 103.418,180.844 102.418,173.178 101.5,165.5C 101.845,155.638 106.178,148.138 114.5,143C 118.935,140.449 123.601,138.449 128.5,137C 144.675,133.015 161.008,132.015 177.5,134C 190.477,136.631 199.81,143.797 205.5,155.5 Z"/></g>
<g><path style="opacity:1" fill="#f5f5f5" d="M 150.5,141.5 C 158.507,141.334 166.507,141.5 174.5,142C 186.088,143.341 194.588,148.841 200,158.5C 190.294,148.258 178.294,143.258 164,143.5C 149.772,143.744 136.272,146.911 123.5,153C 119.042,155.74 115.875,159.573 114,164.5C 112.735,175.428 112.068,186.428 112,197.5C 110.834,202.499 108.167,206.499 104,209.5C 105.48,206.613 107.146,203.613 109,200.5C 110.047,196.886 110.88,193.22 111.5,189.5C 108.547,178.945 109.047,168.611 113,158.5C 117.015,153.157 122.182,149.323 128.5,147C 135.823,144.575 143.157,142.742 150.5,141.5 Z"/></g>
<g><path style="opacity:1" fill="#979798" d="M 152.5,137.5 C 161.045,136.149 169.711,136.315 178.5,138C 169.864,137.702 161.197,137.536 152.5,137.5 Z"/></g>
<g><path style="opacity:1" fill="#f2f4f4" d="M 119.5,247.5 C 118.655,248.671 117.989,250.005 117.5,251.5C 111.938,252.777 107.604,255.777 104.5,260.5C 103.532,253.059 106.032,246.726 112,241.5C 112.333,243.167 112.667,244.833 113,246.5C 112.122,238.88 111.788,231.214 112,223.5C 115.414,217.003 119.081,210.67 123,204.5C 125.236,195.619 126.903,186.619 128,177.5C 129.738,173.759 132.238,170.592 135.5,168C 144.837,162.395 155.004,159.562 166,159.5C 178.144,159.484 188.311,163.817 196.5,172.5C 182.444,162.714 166.777,160.214 149.5,165C 140.255,167.244 133.755,172.744 130,181.5C 128.619,195.309 124.619,208.309 118,220.5C 118.002,229.518 118.502,238.518 119.5,247.5 Z"/></g>
<g><path style="opacity:1" fill="#f5f5f5" d="M 200.5,191.5 C 200.833,192.167 201.167,192.833 201.5,193.5C 196.135,196.7 190.802,200.2 185.5,204C 184,206.167 182.5,208.333 181,210.5C 178.54,211.958 176.373,213.791 174.5,216C 161.992,215.878 150.325,218.711 139.5,224.5C 131.783,205.638 136.116,190.138 152.5,178C 171.683,171.453 187.683,175.953 200.5,191.5 Z"/></g>
<g><path style="opacity:1" fill="#bdbebe" d="M 205.5,155.5 C 208.404,160.418 210.404,165.752 211.5,171.5C 208.163,174.005 207.83,176.838 210.5,180C 210.69,182.312 210.023,184.645 208.5,187C 208.57,187.765 208.903,188.265 209.5,188.5C 209.5,189.167 209.5,189.833 209.5,190.5C 208.325,190.719 207.325,190.386 206.5,189.5C 207.506,188.604 207.506,187.938 206.5,187.5C 205.143,190.527 205.476,193.36 207.5,196C 206.181,196.195 204.847,196.028 203.5,195.5C 202.833,194.833 202.167,194.167 201.5,193.5C 201.167,192.833 200.833,192.167 200.5,191.5C 201.936,191.708 203.27,190.875 204.5,189C 203.289,187.887 203.289,186.72 204.5,185.5C 203.5,183.5 202.5,181.5 201.5,179.5C 202.758,180.016 203.758,179.35 204.5,177.5C 203.242,178.016 202.242,177.35 201.5,175.5C 203.724,174.256 205.39,171.923 206.5,168.5C 205.167,165.833 203.833,163.167 202.5,160.5C 202.846,159.304 203.346,159.304 204,160.5C 204.492,159.451 204.326,158.451 203.5,157.5C 203.846,156.304 204.346,156.304 205,157.5C 205.464,156.906 205.631,156.239 205.5,155.5 Z"/></g>
<g><path style="opacity:1" fill="#7a7a7b" d="M 211.5,171.5 C 211.5,178.167 211.5,184.833 211.5,191.5C 211.5,191.833 211.5,192.167 211.5,192.5C 211.167,192.5 210.833,192.5 210.5,192.5C 210.768,190.901 210.434,189.568 209.5,188.5C 208.903,188.265 208.57,187.765 208.5,187C 210.023,184.645 210.69,182.312 210.5,180C 207.83,176.838 208.163,174.005 211.5,171.5 Z"/></g>
<g><path style="opacity:1" fill="#8b918f" d="M 209.5,190.5 C 208.682,195.681 208.682,201.014 209.5,206.5C 209.167,206.5 208.833,206.5 208.5,206.5C 207.737,204.632 206.737,202.965 205.5,201.5C 204.833,199.5 204.167,197.5 203.5,195.5C 204.847,196.028 206.181,196.195 207.5,196C 205.476,193.36 205.143,190.527 206.5,187.5C 207.506,187.938 207.506,188.604 206.5,189.5C 207.325,190.386 208.325,190.719 209.5,190.5 Z"/></g>
<g><path style="opacity:1" fill="#f1f5ef" d="M 211.5,191.5 C 239.608,191.313 265.608,198.646 289.5,213.5C 318.539,190.086 349.539,187.253 382.5,205C 405.629,221.425 416.963,243.925 416.5,272.5C 414.5,272.5 412.5,272.5 410.5,272.5C 413.337,248.625 405.337,228.792 386.5,213C 360.762,194.646 333.762,192.646 305.5,207C 301.656,209.422 297.99,212.089 294.5,215C 292.866,215.494 291.199,215.66 289.5,215.5C 277.03,209.163 264.03,203.663 250.5,199C 237.849,194.998 225.016,193.832 212,195.5C 211.517,194.552 211.351,193.552 211.5,192.5C 211.5,192.167 211.5,191.833 211.5,191.5 Z"/></g>
<g><path style="opacity:1" fill="#202725" d="M 209.5,188.5 C 210.434,189.568 210.768,190.901 210.5,192.5C 210.5,195.833 210.5,199.167 210.5,202.5C 210.826,208.823 213.493,213.823 218.5,217.5C 221.986,220.132 224.653,222.966 226.5,226C 225.906,226.464 225.239,226.631 224.5,226.5C 224.167,226.5 223.833,226.5 223.5,226.5C 220.859,224.196 218.192,221.862 215.5,219.5C 214.89,217.566 213.89,215.899 212.5,214.5C 211.5,211.833 210.5,209.167 209.5,206.5C 208.682,201.014 208.682,195.681 209.5,190.5C 209.5,189.833 209.5,189.167 209.5,188.5 Z"/></g>
<g><path style="opacity:1" fill="#dcf0e6" d="M 210.5,192.5 C 210.833,192.5 211.167,192.5 211.5,192.5C 211.351,193.552 211.517,194.552 212,195.5C 225.016,193.832 237.849,194.998 250.5,199C 264.03,203.663 277.03,209.163 289.5,215.5C 290.5,216.833 291.5,218.167 292.5,219.5C 290.5,219.5 288.5,219.5 286.5,219.5C 273.366,214.397 260.032,209.564 246.5,205C 234.97,202.083 223.47,201.917 212,204.5C 211.722,203.584 211.222,202.918 210.5,202.5C 210.5,199.167 210.5,195.833 210.5,192.5 Z"/></g>
<g><path style="opacity:1" fill="#eff6e5" d="M 410.5,272.5 C 407.978,273.011 405.645,274.011 403.5,275.5C 403.673,233.674 383.006,210.341 341.5,205.5C 326.844,206.105 313.844,210.938 302.5,220C 298.973,220.808 295.64,220.641 292.5,219.5C 291.5,218.167 290.5,216.833 289.5,215.5C 291.199,215.66 292.866,215.494 294.5,215C 297.99,212.089 301.656,209.422 305.5,207C 333.762,192.646 360.762,194.646 386.5,213C 405.337,228.792 413.337,248.625 410.5,272.5 Z"/></g>
<g><path style="opacity:1" fill="#ceede0" d="M 205.5,201.5 C 206.737,202.965 207.737,204.632 208.5,206.5C 204.714,209.34 200.881,212.34 197,215.5C 195.574,221.094 192.407,225.428 187.5,228.5C 187.649,227.448 187.483,226.448 187,225.5C 185.89,227.037 184.39,227.703 182.5,227.5C 182.5,226.167 182.5,224.833 182.5,223.5C 183.199,220.69 184.199,218.023 185.5,215.5C 190.778,208.894 197.445,204.228 205.5,201.5 Z"/></g>
<g><path style="opacity:1" fill="#bbe8d2" d="M 210.5,202.5 C 211.222,202.918 211.722,203.584 212,204.5C 223.47,201.917 234.97,202.083 246.5,205C 260.032,209.564 273.366,214.397 286.5,219.5C 288.657,221.412 290.991,223.079 293.5,224.5C 290.903,224.721 290.903,225.221 293.5,226C 288.858,225.937 284.191,225.604 279.5,225C 276.242,223.533 272.908,222.367 269.5,221.5C 266.076,216.372 261.242,214.039 255,214.5C 247.742,214.873 240.908,216.54 234.5,219.5C 228.977,219.931 223.644,219.264 218.5,217.5C 213.493,213.823 210.826,208.823 210.5,202.5 Z"/></g>
<g><path style="opacity:1" fill="#e8f6d8" d="M 403.5,275.5 C 403.217,276.289 402.717,276.956 402,277.5C 401.51,276.207 401.343,274.873 401.5,273.5C 397.833,273.5 394.167,273.5 390.5,273.5C 392.265,272.539 394.265,272.205 396.5,272.5C 396.227,243.734 382.56,224.567 355.5,215C 337.96,211.174 321.96,214.508 307.5,225C 306.207,225.49 304.873,225.657 303.5,225.5C 300.14,225.384 296.807,225.051 293.5,224.5C 290.991,223.079 288.657,221.412 286.5,219.5C 288.5,219.5 290.5,219.5 292.5,219.5C 295.64,220.641 298.973,220.808 302.5,220C 313.844,210.938 326.844,206.105 341.5,205.5C 383.006,210.341 403.673,233.674 403.5,275.5 Z"/></g>
<g><path style="opacity:1" fill="#e3f2f2" d="M 201.5,193.5 C 202.167,194.167 202.833,194.833 203.5,195.5C 204.167,197.5 204.833,199.5 205.5,201.5C 197.445,204.228 190.778,208.894 185.5,215.5C 180.533,219.132 175.867,223.132 171.5,227.5C 161.737,228.231 152.57,230.898 144,235.5C 143.333,234.167 142.667,232.833 142,231.5C 140.843,234.494 138.676,236.16 135.5,236.5C 135.649,235.448 135.483,234.448 135,233.5C 134.28,235.112 134.446,236.612 135.5,238C 133.333,239.5 131.167,241 129,242.5C 128.333,234.5 127.667,234.5 127,242.5C 125,244.5 123,246.5 121,248.5C 120.601,248.272 120.435,247.938 120.5,247.5C 120.492,242.44 120.326,237.44 120,232.5C 121.512,231.743 122.846,230.743 124,229.5C 125.044,230.623 125.71,231.956 126,233.5C 126.651,231.765 126.485,230.098 125.5,228.5C 127.071,226.585 129.071,225.585 131.5,225.5C 131.687,227.564 132.187,229.564 133,231.5C 135.088,230.692 137.088,229.692 139,228.5C 139.667,229.167 140.333,229.833 141,230.5C 140.85,228.494 140.35,226.494 139.5,224.5C 150.325,218.711 161.992,215.878 174.5,216C 176.373,213.791 178.54,211.958 181,210.5C 182.5,208.333 184,206.167 185.5,204C 190.802,200.2 196.135,196.7 201.5,193.5 Z"/></g>
<g><path style="opacity:1" fill="#639f85" d="M 218.5,217.5 C 223.644,219.264 228.977,219.931 234.5,219.5C 234.047,220.458 233.381,221.292 232.5,222C 233.766,222.309 234.933,222.809 236,223.5C 236.333,222.833 236.667,222.167 237,221.5C 239.841,223.504 243.007,224.004 246.5,223C 244.405,222.444 244.238,221.944 246,221.5C 252.192,222.13 258.359,222.964 264.5,224C 255.241,225.251 245.908,225.918 236.5,226C 245.167,226.333 253.833,226.667 262.5,227C 261.5,227.333 260.5,227.667 259.5,228C 262.035,228.617 264.368,228.117 266.5,226.5C 266.833,226.667 267.167,226.833 267.5,227C 263.854,229.248 259.854,230.582 255.5,231C 258.54,231.32 261.54,231.32 264.5,231C 261.15,232.486 257.816,233.653 254.5,234.5C 252.143,234.663 249.81,234.497 247.5,234C 248.5,233.667 249.5,233.333 250.5,233C 241.035,233.941 232.368,231.775 224.5,226.5C 225.239,226.631 225.906,226.464 226.5,226C 224.653,222.966 221.986,220.132 218.5,217.5 Z"/></g>
<g><path style="opacity:1" fill="#ddf9ba" d="M 383.5,281.5 C 382.752,279.668 381.752,278.001 380.5,276.5C 383.561,247.699 370.561,231.366 341.5,227.5C 333.877,227.764 326.877,229.931 320.5,234C 317.568,234.953 314.568,235.453 311.5,235.5C 311.158,234.662 310.492,234.328 309.5,234.5C 308.942,233.21 307.942,232.377 306.5,232C 307.094,231.536 307.761,231.369 308.5,231.5C 310.199,231.66 311.866,231.494 313.5,231C 336.333,216.722 357.499,218.889 377,237.5C 387.138,250.714 390.305,265.381 386.5,281.5C 385.5,281.5 384.5,281.5 383.5,281.5 Z"/></g>
<g><path style="opacity:1" fill="#82c2a5" d="M 269.5,221.5 C 270.877,223.289 271.877,225.289 272.5,227.5C 271.903,227.735 271.57,228.235 271.5,229C 272.214,232.506 272.881,236.006 273.5,239.5C 272.833,240.167 272.167,240.833 271.5,241.5C 271.64,239.876 270.973,238.71 269.5,238C 264.414,236.62 259.414,235.454 254.5,234.5C 257.816,233.653 261.15,232.486 264.5,231C 261.54,231.32 258.54,231.32 255.5,231C 259.854,230.582 263.854,229.248 267.5,227C 267.167,226.833 266.833,226.667 266.5,226.5C 264.368,228.117 262.035,228.617 259.5,228C 260.5,227.667 261.5,227.333 262.5,227C 253.833,226.667 245.167,226.333 236.5,226C 245.908,225.918 255.241,225.251 264.5,224C 258.359,222.964 252.192,222.13 246,221.5C 244.238,221.944 244.405,222.444 246.5,223C 243.007,224.004 239.841,223.504 237,221.5C 236.667,222.167 236.333,222.833 236,223.5C 234.933,222.809 233.766,222.309 232.5,222C 233.381,221.292 234.047,220.458 234.5,219.5C 240.908,216.54 247.742,214.873 255,214.5C 261.242,214.039 266.076,216.372 269.5,221.5 Z"/></g>
<g><path style="opacity:1" fill="#d3efef" d="M 185.5,215.5 C 184.199,218.023 183.199,220.69 182.5,223.5C 179.365,226.808 176.365,230.308 173.5,234C 163.103,234.514 153.437,237.347 144.5,242.5C 143.749,241.624 143.249,240.624 143,239.5C 140.667,241.167 138.333,242.833 136,244.5C 135.667,243.833 135.333,243.167 135,242.5C 133.941,245.618 132.608,248.618 131,251.5C 130.329,252.252 129.496,252.586 128.5,252.5C 124.881,251.756 121.215,251.423 117.5,251.5C 117.989,250.005 118.655,248.671 119.5,247.5C 119.833,247.5 120.167,247.5 120.5,247.5C 120.435,247.938 120.601,248.272 121,248.5C 123,246.5 125,244.5 127,242.5C 127.667,234.5 128.333,234.5 129,242.5C 131.167,241 133.333,239.5 135.5,238C 134.446,236.612 134.28,235.112 135,233.5C 135.483,234.448 135.649,235.448 135.5,236.5C 138.676,236.16 140.843,234.494 142,231.5C 142.667,232.833 143.333,234.167 144,235.5C 152.57,230.898 161.737,228.231 171.5,227.5C 175.867,223.132 180.533,219.132 185.5,215.5 Z"/></g>
<g><path style="opacity:1" fill="#d7faab" d="M 380.5,276.5 C 378.062,274.733 375.395,273.399 372.5,272.5C 373.995,258.323 368.662,247.49 356.5,240C 351.916,237.812 347.083,236.646 342,236.5C 332.718,238.391 323.552,240.725 314.5,243.5C 313.711,243.217 313.044,242.717 312.5,242C 321.579,239.016 321.246,237.683 311.5,238C 310.226,237.023 310.226,236.189 311.5,235.5C 314.568,235.453 317.568,234.953 320.5,234C 326.877,229.931 333.877,227.764 341.5,227.5C 370.561,231.366 383.561,247.699 380.5,276.5 Z"/></g>
<g><path style="opacity:1" fill="#b3e9c0" d="M 269.5,221.5 C 272.908,222.367 276.242,223.533 279.5,225C 284.191,225.604 288.858,225.937 293.5,226C 290.903,225.221 290.903,224.721 293.5,224.5C 296.807,225.051 300.14,225.384 303.5,225.5C 303.918,226.222 304.584,226.722 305.5,227C 304.062,227.219 302.729,227.719 301.5,228.5C 303.857,229.228 306.19,230.228 308.5,231.5C 307.761,231.369 307.094,231.536 306.5,232C 307.942,232.377 308.942,233.21 309.5,234.5C 305.788,234.658 302.288,234.658 299,234.5C 296.456,237.101 293.29,238.101 289.5,237.5C 287.708,236.691 285.708,236.191 283.5,236C 284.458,234.853 284.125,233.853 282.5,233C 280.19,232.503 277.857,232.337 275.5,232.5C 274.263,231.035 273.263,229.368 272.5,227.5C 271.877,225.289 270.877,223.289 269.5,221.5 Z"/></g>
<g><path style="opacity:1" fill="#75dcba" d="M 223.5,226.5 C 223.833,226.5 224.167,226.5 224.5,226.5C 232.368,231.775 241.035,233.941 250.5,233C 249.5,233.333 248.5,233.667 247.5,234C 249.81,234.497 252.143,234.663 254.5,234.5C 259.414,235.454 264.414,236.62 269.5,238C 270.973,238.71 271.64,239.876 271.5,241.5C 270.42,243.996 269.086,246.33 267.5,248.5C 260.955,243.937 253.622,242.437 245.5,244C 242.947,244.761 240.447,245.594 238,246.5C 236.691,244.109 235.691,244.109 235,246.5C 234.586,246.043 234.086,245.709 233.5,245.5C 230.007,249.939 228.674,254.773 229.5,260C 230.825,262.985 232.158,265.985 233.5,269C 232.902,270.301 231.902,271.135 230.5,271.5C 226.269,267.04 223.769,262.04 223,256.5C 220.602,254.092 218.769,251.426 217.5,248.5C 212.793,242.44 214.126,237.94 221.5,235C 219.997,232.656 219.331,230.323 219.5,228C 220.901,227.59 222.234,227.09 223.5,226.5 Z"/></g>
<g><path style="opacity:1" fill="#cdf99b" d="M 372.5,272.5 C 369.5,272.5 366.5,272.5 363.5,272.5C 365.549,271.727 366.883,270.227 367.5,268C 364.885,250.048 354.551,241.715 336.5,243C 327.279,246.016 318.279,249.516 309.5,253.5C 309.702,251.05 309.369,248.717 308.5,246.5C 310.371,245.203 312.371,244.203 314.5,243.5C 323.552,240.725 332.718,238.391 342,236.5C 347.083,236.646 351.916,237.812 356.5,240C 368.662,247.49 373.995,258.323 372.5,272.5 Z"/></g>
<g><path style="opacity:1" fill="#b2e9db" d="M 208.5,206.5 C 208.833,206.5 209.167,206.5 209.5,206.5C 210.5,209.167 211.5,211.833 212.5,214.5C 205.647,219.536 199.147,225.202 193,231.5C 192.264,234.592 192.431,237.592 193.5,240.5C 192.185,241.476 190.852,242.476 189.5,243.5C 188.808,242.975 188.308,242.308 188,241.5C 186.629,243.041 185.129,244.375 183.5,245.5C 182.542,243.698 181.875,241.698 181.5,239.5C 182.812,237.359 184.645,235.692 187,234.5C 186.577,232.613 186.744,230.613 187.5,228.5C 192.407,225.428 195.574,221.094 197,215.5C 200.881,212.34 204.714,209.34 208.5,206.5 Z"/></g>
<g><path style="opacity:1" fill="#9fe5d1" d="M 212.5,214.5 C 213.89,215.899 214.89,217.566 215.5,219.5C 214.013,221.605 212.013,223.272 209.5,224.5C 208.03,227.308 207.197,230.308 207,233.5C 204.716,235.736 203.216,238.402 202.5,241.5C 200.5,243.833 198.5,246.167 196.5,248.5C 195.129,246.064 194.129,243.397 193.5,240.5C 192.431,237.592 192.264,234.592 193,231.5C 199.147,225.202 205.647,219.536 212.5,214.5 Z"/></g>
<g><path style="opacity:1" fill="#40654f" d="M 272.5,227.5 C 273.263,229.368 274.263,231.035 275.5,232.5C 278.167,237.833 280.833,243.167 283.5,248.5C 280.808,245.583 277.475,242.583 273.5,239.5C 272.881,236.006 272.214,232.506 271.5,229C 271.57,228.235 271.903,227.735 272.5,227.5 Z"/></g>
<g><path style="opacity:1" fill="#bdecec" d="M 182.5,223.5 C 182.5,224.833 182.5,226.167 182.5,227.5C 184.39,227.703 185.89,227.037 187,225.5C 187.483,226.448 187.649,227.448 187.5,228.5C 186.744,230.613 186.577,232.613 187,234.5C 184.645,235.692 182.812,237.359 181.5,239.5C 179.37,241.127 177.37,242.96 175.5,245C 157.836,244.914 144.003,252.081 134,266.5C 133.617,265.944 133.117,265.611 132.5,265.5C 133.82,262.86 135.153,260.193 136.5,257.5C 136.023,256.522 135.357,255.689 134.5,255C 132.277,254.434 130.277,253.6 128.5,252.5C 129.496,252.586 130.329,252.252 131,251.5C 132.608,248.618 133.941,245.618 135,242.5C 135.333,243.167 135.667,243.833 136,244.5C 138.333,242.833 140.667,241.167 143,239.5C 143.249,240.624 143.749,241.624 144.5,242.5C 153.437,237.347 163.103,234.514 173.5,234C 176.365,230.308 179.365,226.808 182.5,223.5 Z"/></g>
<g><path style="opacity:1" fill="#85dfc4" d="M 215.5,219.5 C 218.192,221.862 220.859,224.196 223.5,226.5C 222.234,227.09 220.901,227.59 219.5,228C 219.331,230.323 219.997,232.656 221.5,235C 214.126,237.94 212.793,242.44 217.5,248.5C 218.761,250.486 218.428,252.319 216.5,254C 216.623,255.789 216.623,257.622 216.5,259.5C 219.228,262.899 221.561,266.566 223.5,270.5C 221.955,271.452 220.288,271.785 218.5,271.5C 212.141,262.12 206.808,252.12 202.5,241.5C 203.216,238.402 204.716,235.736 207,233.5C 207.197,230.308 208.03,227.308 209.5,224.5C 212.013,223.272 214.013,221.605 215.5,219.5 Z"/></g>
<g><path style="opacity:1" fill="#b9f0aa" d="M 309.5,234.5 C 310.492,234.328 311.158,234.662 311.5,235.5C 310.226,236.189 310.226,237.023 311.5,238C 321.246,237.683 321.579,239.016 312.5,242C 313.044,242.717 313.711,243.217 314.5,243.5C 312.371,244.203 310.371,245.203 308.5,246.5C 306.167,246.5 303.833,246.5 301.5,246.5C 297.803,246.436 294.803,248.103 292.5,251.5C 291.819,248.269 291.652,244.936 292,241.5C 290.519,240.529 289.685,239.196 289.5,237.5C 293.29,238.101 296.456,237.101 299,234.5C 302.288,234.658 305.788,234.658 309.5,234.5 Z"/></g>
<g><path style="opacity:1" fill="#68d8be" d="M 267.5,248.5 C 267.81,249.738 268.31,249.738 269,248.5C 267.886,251.805 265.719,254.472 262.5,256.5C 261.262,256.19 261.262,255.69 262.5,255C 260.369,255.398 258.369,256.398 256.5,258C 257.5,258.333 258.5,258.667 259.5,259C 253.5,262.333 247.5,265.667 241.5,269C 245.283,268.119 248.95,266.619 252.5,264.5C 253.696,264.846 253.696,265.346 252.5,266C 251.167,266.667 249.833,267.333 248.5,268C 249.756,268.417 250.423,269.25 250.5,270.5C 247.113,272.275 243.613,273.942 240,275.5C 239.5,275.333 239,275.167 238.5,275C 239.728,274.221 240.728,273.221 241.5,272C 241.167,271.5 240.833,271 240.5,270.5C 238.339,271.035 236.339,271.868 234.5,273C 235.449,273.617 236.282,273.451 237,272.5C 237.667,273.167 237.667,273.833 237,274.5C 235.416,275.861 233.582,276.528 231.5,276.5C 226.806,273.075 221.473,271.742 215.5,272.5C 216.209,271.596 217.209,271.263 218.5,271.5C 220.288,271.785 221.955,271.452 223.5,270.5C 221.561,266.566 219.228,262.899 216.5,259.5C 216.623,257.622 216.623,255.789 216.5,254C 218.428,252.319 218.761,250.486 217.5,248.5C 218.769,251.426 220.602,254.092 223,256.5C 223.769,262.04 226.269,267.04 230.5,271.5C 231.902,271.135 232.902,270.301 233.5,269C 232.158,265.985 230.825,262.985 229.5,260C 228.674,254.773 230.007,249.939 233.5,245.5C 234.086,245.709 234.586,246.043 235,246.5C 235.691,244.109 236.691,244.109 238,246.5C 240.447,245.594 242.947,244.761 245.5,244C 253.622,242.437 260.955,243.937 267.5,248.5 Z"/></g>
<g><path style="opacity:1" fill="#a7e9eb" d="M 181.5,239.5 C 181.875,241.698 182.542,243.698 183.5,245.5C 181.215,247.118 179.215,249.118 177.5,251.5C 170.674,252.299 164.007,253.799 157.5,256C 154.823,256.814 152.823,258.314 151.5,260.5C 149.833,260.5 148.167,260.5 146.5,260.5C 146.5,264.833 146.5,269.167 146.5,273.5C 144.833,273.5 143.167,273.5 141.5,273.5C 141.5,276.167 141.5,278.833 141.5,281.5C 142.568,282.434 143.901,282.768 145.5,282.5C 145.773,284.451 145.107,285.951 143.5,287C 144.96,287.811 145.293,288.645 144.5,289.5C 142.302,287.902 139.969,286.569 137.5,285.5C 135.854,282.19 133.52,279.523 130.5,277.5C 127.586,273.44 127.919,269.774 131.5,266.5C 132.167,266.5 132.5,266.167 132.5,265.5C 133.117,265.611 133.617,265.944 134,266.5C 144.003,252.081 157.836,244.914 175.5,245C 177.37,242.96 179.37,241.127 181.5,239.5 Z"/></g>
<g><path style="opacity:1" fill="#c6fb89" d="M 363.5,272.5 C 361.297,272.604 359.297,273.27 357.5,274.5C 360.622,261.067 355.456,253.067 342,250.5C 331.016,251.163 323.849,256.663 320.5,267C 320.867,269.708 321.534,272.208 322.5,274.5C 320.642,278.29 318.975,278.29 317.5,274.5C 316.909,271.06 315.909,267.727 314.5,264.5C 317.8,261.818 317.967,259.152 315,256.5C 313.401,258.036 311.567,258.536 309.5,258C 310.728,256.51 310.728,255.01 309.5,253.5C 318.279,249.516 327.279,246.016 336.5,243C 354.551,241.715 364.885,250.048 367.5,268C 366.883,270.227 365.549,271.727 363.5,272.5 Z"/></g>
<g><path style="opacity:1" fill="#8ce4a9" d="M 275.5,232.5 C 277.857,232.337 280.19,232.503 282.5,233C 284.125,233.853 284.458,234.853 283.5,236C 285.708,236.191 287.708,236.691 289.5,237.5C 289.685,239.196 290.519,240.529 292,241.5C 291.652,244.936 291.819,248.269 292.5,251.5C 291.337,258.444 291.337,265.444 292.5,272.5C 290.833,272.5 289.167,272.5 287.5,272.5C 286.434,270.299 285.767,267.965 285.5,265.5C 287.306,259.415 286.64,253.748 283.5,248.5C 280.833,243.167 278.167,237.833 275.5,232.5 Z"/></g>
<g><path style="opacity:1" fill="#c2fb7d" d="M 357.5,274.5 C 351.629,278.571 348.629,284.238 348.5,291.5C 347.279,292.028 346.113,292.695 345,293.5C 344.821,289.975 344.321,286.641 343.5,283.5C 343.5,282.5 343.5,281.5 343.5,280.5C 351.479,278.021 354.646,272.688 353,264.5C 348.964,256.282 342.797,254.116 334.5,258C 329.984,261.626 328.317,266.126 329.5,271.5C 331.099,271.232 332.432,271.566 333.5,272.5C 329.633,272.242 325.966,272.908 322.5,274.5C 321.534,272.208 320.867,269.708 320.5,267C 323.849,256.663 331.016,251.163 342,250.5C 355.456,253.067 360.622,261.067 357.5,274.5 Z"/></g>
<g><path style="opacity:1" fill="#060707" d="M 117.5,251.5 C 121.215,251.423 124.881,251.756 128.5,252.5C 130.277,253.6 132.277,254.434 134.5,255C 135.357,255.689 136.023,256.522 136.5,257.5C 135.153,260.193 133.82,262.86 132.5,265.5C 132.5,266.167 132.167,266.5 131.5,266.5C 127.027,262.643 122.027,261.81 116.5,264C 115.167,266.333 115.167,268.667 116.5,271C 121.068,273.452 125.735,275.618 130.5,277.5C 133.52,279.523 135.854,282.19 137.5,285.5C 139.011,292.124 137.678,298.124 133.5,303.5C 129.747,304.859 126.081,306.193 122.5,307.5C 118.452,307.605 114.452,307.272 110.5,306.5C 107.406,305.787 104.406,304.787 101.5,303.5C 101.027,302.094 100.027,301.427 98.5,301.5C 99.6933,297.451 101.693,293.784 104.5,290.5C 110.109,295.294 116.442,296.627 123.5,294.5C 126.08,292.044 126.08,289.544 123.5,287C 116.655,284.324 110.488,280.491 105,275.5C 103.241,272.392 102.408,269.059 102.5,265.5C 102.5,264.833 102.5,264.167 102.5,263.5C 103.401,262.71 104.068,261.71 104.5,260.5C 107.604,255.777 111.938,252.777 117.5,251.5 Z"/></g>
<g><path style="opacity:1" fill="#62b690" d="M 273.5,239.5 C 277.475,242.583 280.808,245.583 283.5,248.5C 286.64,253.748 287.306,259.415 285.5,265.5C 283.963,268.9 282.13,272.233 280,275.5C 279.5,285.828 279.334,296.161 279.5,306.5C 279.167,306.5 278.833,306.5 278.5,306.5C 278.5,295.5 278.5,284.5 278.5,273.5C 274.833,273.5 271.167,273.5 267.5,273.5C 266.453,272.922 266.62,272.256 268,271.5C 270.381,272.435 272.881,272.768 275.5,272.5C 275.656,268.418 275.156,264.418 274,260.5C 272.951,261.517 271.784,261.684 270.5,261C 272.325,259.534 272.825,257.701 272,255.5C 269.496,259.673 267.829,259.34 267,254.5C 265.981,255.687 264.814,256.687 263.5,257.5C 262.893,257.376 262.56,257.043 262.5,256.5C 265.719,254.472 267.886,251.805 269,248.5C 268.31,249.738 267.81,249.738 267.5,248.5C 269.086,246.33 270.42,243.996 271.5,241.5C 272.167,240.833 272.833,240.167 273.5,239.5 Z"/></g>
<g><path style="opacity:1" fill="#88e2d6" d="M 202.5,241.5 C 206.808,252.12 212.141,262.12 218.5,271.5C 217.209,271.263 216.209,271.596 215.5,272.5C 212.122,273.023 209.122,274.356 206.5,276.5C 204.588,272.583 202.255,268.917 199.5,265.5C 197.31,261.798 195.31,257.965 193.5,254C 194.124,251.915 195.124,250.082 196.5,248.5C 198.5,246.167 200.5,243.833 202.5,241.5 Z"/></g>
<g><path style="opacity:1" fill="#98e898" d="M 301.5,246.5 C 301.077,247.265 300.743,248.098 300.5,249C 302.097,251.527 303.43,254.194 304.5,257C 303.106,257.956 302.439,259.289 302.5,261C 303.711,264.052 304.545,267.219 305,270.5C 306.948,271.109 308.782,271.776 310.5,272.5C 306.334,271.944 302.668,272.944 299.5,275.5C 298.596,274.791 298.263,273.791 298.5,272.5C 296.5,272.5 294.5,272.5 292.5,272.5C 291.337,265.444 291.337,258.444 292.5,251.5C 294.803,248.103 297.803,246.436 301.5,246.5 Z"/></g>
<g><path style="opacity:1" fill="#97e8e9" d="M 193.5,240.5 C 194.129,243.397 195.129,246.064 196.5,248.5C 195.124,250.082 194.124,251.915 193.5,254C 195.31,257.965 197.31,261.798 199.5,265.5C 196.102,265.82 192.768,265.487 189.5,264.5C 188.846,262.885 188.346,261.218 188,259.5C 187.167,260.333 186.333,261.167 185.5,262C 176.114,260.443 167.114,261.61 158.5,265.5C 158.784,263.585 158.451,261.919 157.5,260.5C 155.5,260.5 153.5,260.5 151.5,260.5C 152.823,258.314 154.823,256.814 157.5,256C 164.007,253.799 170.674,252.299 177.5,251.5C 179.215,249.118 181.215,247.118 183.5,245.5C 185.129,244.375 186.629,243.041 188,241.5C 188.308,242.308 188.808,242.975 189.5,243.5C 190.852,242.476 192.185,241.476 193.5,240.5 Z"/></g>
<g><path style="opacity:1" fill="#c0fd71" d="M 343.5,280.5 C 341.662,275.998 338.328,273.331 333.5,272.5C 332.432,271.566 331.099,271.232 329.5,271.5C 328.317,266.126 329.984,261.626 334.5,258C 342.797,254.116 348.964,256.282 353,264.5C 354.646,272.688 351.479,278.021 343.5,280.5 Z"/></g>
<g><path style="opacity:1" fill="#000101" d="M 151.5,260.5 C 153.5,260.5 155.5,260.5 157.5,260.5C 157.5,264.833 157.5,269.167 157.5,273.5C 159.833,273.5 162.167,273.5 164.5,273.5C 164.5,276.167 164.5,278.833 164.5,281.5C 162.167,281.5 159.833,281.5 157.5,281.5C 157.181,286.363 157.514,291.03 158.5,295.5C 159.585,297.582 161.085,297.916 163,296.5C 167.842,304.013 165.842,307.68 157,307.5C 155.122,307.304 153.288,306.971 151.5,306.5C 149.238,304.315 147.738,301.648 147,298.5C 146.501,292.843 146.334,287.176 146.5,281.5C 144.833,281.5 143.167,281.5 141.5,281.5C 141.5,278.833 141.5,276.167 141.5,273.5C 143.167,273.5 144.833,273.5 146.5,273.5C 146.5,269.167 146.5,264.833 146.5,260.5C 148.167,260.5 149.833,260.5 151.5,260.5 Z"/></g>
<g><path style="opacity:1" fill="#7ae1e5" d="M 199.5,265.5 C 202.255,268.917 204.588,272.583 206.5,276.5C 200.684,282.083 199.017,288.75 201.5,296.5C 195.161,296.058 188.994,296.725 183,298.5C 182.501,294.514 182.334,290.514 182.5,286.5C 182.511,284.983 183.177,283.816 184.5,283C 187.76,282.216 190.927,282.383 194,283.5C 201.304,274.369 199.137,270.869 187.5,273C 185.376,274.122 183.543,275.622 182,277.5C 181.51,276.207 181.343,274.873 181.5,273.5C 177.702,272.517 173.702,272.183 169.5,272.5C 169.5,279.167 169.5,285.833 169.5,292.5C 165.881,291.756 162.215,291.423 158.5,291.5C 158.5,288.5 158.5,285.5 158.5,282.5C 160.735,282.795 162.735,282.461 164.5,281.5C 164.5,278.833 164.5,276.167 164.5,273.5C 162.735,272.539 160.735,272.205 158.5,272.5C 158.5,270.167 158.5,267.833 158.5,265.5C 167.114,261.61 176.114,260.443 185.5,262C 186.333,261.167 187.167,260.333 188,259.5C 188.346,261.218 188.846,262.885 189.5,264.5C 192.768,265.487 196.102,265.82 199.5,265.5 Z"/></g>
<g><path style="opacity:1" fill="#55c5ba" d="M 262.5,256.5 C 262.56,257.043 262.893,257.376 263.5,257.5C 264.814,256.687 265.981,255.687 267,254.5C 267.829,259.34 269.496,259.673 272,255.5C 272.825,257.701 272.325,259.534 270.5,261C 271.784,261.684 272.951,261.517 274,260.5C 275.156,264.418 275.656,268.418 275.5,272.5C 272.881,272.768 270.381,272.435 268,271.5C 266.62,272.256 266.453,272.922 267.5,273.5C 267.631,274.376 267.298,275.043 266.5,275.5C 261.934,272.773 256.934,271.773 251.5,272.5C 251.167,271.833 250.833,271.167 250.5,270.5C 250.423,269.25 249.756,268.417 248.5,268C 249.833,267.333 251.167,266.667 252.5,266C 253.696,265.346 253.696,264.846 252.5,264.5C 248.95,266.619 245.283,268.119 241.5,269C 247.5,265.667 253.5,262.333 259.5,259C 258.5,258.667 257.5,258.333 256.5,258C 258.369,256.398 260.369,255.398 262.5,255C 261.262,255.69 261.262,256.19 262.5,256.5 Z"/></g>
<g><path style="opacity:1" fill="#acf08c" d="M 301.5,246.5 C 303.833,246.5 306.167,246.5 308.5,246.5C 309.369,248.717 309.702,251.05 309.5,253.5C 310.728,255.01 310.728,256.51 309.5,258C 311.567,258.536 313.401,258.036 315,256.5C 317.967,259.152 317.8,261.818 314.5,264.5C 315.909,267.727 316.909,271.06 317.5,274.5C 315.167,273.833 312.833,273.167 310.5,272.5C 308.782,271.776 306.948,271.109 305,270.5C 304.545,267.219 303.711,264.052 302.5,261C 302.439,259.289 303.106,257.956 304.5,257C 303.43,254.194 302.097,251.527 300.5,249C 300.743,248.098 301.077,247.265 301.5,246.5 Z"/></g>
<g><path style="opacity:1" fill="#4a7d80" d="M 157.5,260.5 C 158.451,261.919 158.784,263.585 158.5,265.5C 158.5,267.833 158.5,270.167 158.5,272.5C 160.735,272.205 162.735,272.539 164.5,273.5C 162.167,273.5 159.833,273.5 157.5,273.5C 157.5,269.167 157.5,264.833 157.5,260.5 Z"/></g>
<g><path style="opacity:1" fill="#b4d9db" d="M 131.5,266.5 C 127.919,269.774 127.586,273.44 130.5,277.5C 125.735,275.618 121.068,273.452 116.5,271C 115.167,268.667 115.167,266.333 116.5,264C 122.027,261.81 127.027,262.643 131.5,266.5 Z"/></g>
<g><path style="opacity:1" fill="#010202" d="M 182.5,286.5 C 182.15,293.395 181.15,300.062 179.5,306.5C 176.5,306.5 173.5,306.5 170.5,306.5C 170.5,295.5 170.5,284.5 170.5,273.5C 174.167,273.5 177.833,273.5 181.5,273.5C 181.343,274.873 181.51,276.207 182,277.5C 183.543,275.622 185.376,274.122 187.5,273C 199.137,270.869 201.304,274.369 194,283.5C 190.927,282.383 187.76,282.216 184.5,283C 183.177,283.816 182.511,284.983 182.5,286.5 Z"/></g>
<g><path style="opacity:1" fill="#040706" d="M 215.5,272.5 C 221.473,271.742 226.806,273.075 231.5,276.5C 235.346,280.706 237.013,285.706 236.5,291.5C 233.833,291.5 231.167,291.5 228.5,291.5C 223.014,291.931 217.681,291.931 212.5,291.5C 212.754,296.666 214.254,297.333 217,293.5C 216.689,294.935 216.855,296.268 217.5,297.5C 221.085,299.073 224.085,298.406 226.5,295.5C 227.117,295.389 227.617,295.056 228,294.5C 230.824,295.818 233.324,297.485 235.5,299.5C 234.5,300.833 233.5,302.167 232.5,303.5C 228.505,305.835 224.172,307.169 219.5,307.5C 218.833,307.5 218.167,307.5 217.5,307.5C 213.467,306.975 209.8,305.642 206.5,303.5C 204.576,301.305 202.909,298.972 201.5,296.5C 199.017,288.75 200.684,282.083 206.5,276.5C 209.122,274.356 212.122,273.023 215.5,272.5 Z"/></g>
<g><path style="opacity:1" fill="#020403" d="M 251.5,272.5 C 256.934,271.773 261.934,272.773 266.5,275.5C 267.298,275.043 267.631,274.376 267.5,273.5C 271.167,273.5 274.833,273.5 278.5,273.5C 278.5,284.5 278.5,295.5 278.5,306.5C 274.833,306.5 271.167,306.5 267.5,306.5C 267.649,305.448 267.483,304.448 267,303.5C 263.595,306.122 259.761,307.455 255.5,307.5C 249.747,307.124 245.414,304.458 242.5,299.5C 238.251,291.893 238.751,284.56 244,277.5C 246.099,275.203 248.599,273.536 251.5,272.5 Z"/></g>
<g><path style="opacity:1" fill="#406e4e" d="M 286.5,273.5 C 286.5,272.833 286.833,272.5 287.5,272.5C 289.167,272.5 290.833,272.5 292.5,272.5C 294.5,272.5 296.5,272.5 298.5,272.5C 298.263,273.791 298.596,274.791 299.5,275.5C 299.44,276.043 299.107,276.376 298.5,276.5C 297.614,275.675 297.281,274.675 297.5,273.5C 293.833,273.5 290.167,273.5 286.5,273.5 Z"/></g>
<g><path style="opacity:1" fill="#030503" d="M 310.5,272.5 C 312.833,273.167 315.167,273.833 317.5,274.5C 318.975,278.29 320.642,278.29 322.5,274.5C 325.966,272.908 329.633,272.242 333.5,272.5C 338.328,273.331 341.662,275.998 343.5,280.5C 343.5,281.5 343.5,282.5 343.5,283.5C 343.5,291.167 343.5,298.833 343.5,306.5C 339.833,306.5 336.167,306.5 332.5,306.5C 332.825,298.981 332.492,291.648 331.5,284.5C 329.593,281.668 326.927,280.834 323.5,282C 322.619,282.708 321.953,283.542 321.5,284.5C 320.833,291.833 320.167,299.167 319.5,306.5C 316.167,306.5 312.833,306.5 309.5,306.5C 309.666,299.159 309.5,291.826 309,284.5C 305.952,280.99 302.619,280.657 299,283.5C 298.501,287.821 298.334,292.154 298.5,296.5C 298.5,299.833 298.5,303.167 298.5,306.5C 296.167,306.5 293.833,306.5 291.5,306.5C 289.833,306.5 288.167,306.5 286.5,306.5C 286.5,295.5 286.5,284.5 286.5,273.5C 290.167,273.5 293.833,273.5 297.5,273.5C 297.281,274.675 297.614,275.675 298.5,276.5C 299.107,276.376 299.44,276.043 299.5,275.5C 302.668,272.944 306.334,271.944 310.5,272.5 Z"/></g>
<g><path style="opacity:1" fill="#060705" d="M 363.5,272.5 C 366.5,272.5 369.5,272.5 372.5,272.5C 375.395,273.399 378.062,274.733 380.5,276.5C 381.752,278.001 382.752,279.668 383.5,281.5C 384.234,282.708 384.567,284.041 384.5,285.5C 384.5,287.167 384.5,288.833 384.5,290.5C 376.5,290.5 368.5,290.5 360.5,290.5C 360.232,292.099 360.566,293.432 361.5,294.5C 362.262,296.262 363.596,297.262 365.5,297.5C 369.709,299.174 373.376,298.174 376.5,294.5C 379.005,296.253 381.671,297.753 384.5,299C 377.08,307.648 368.08,309.815 357.5,305.5C 356.473,303.806 355.139,302.473 353.5,301.5C 351.079,298.588 349.412,295.255 348.5,291.5C 348.629,284.238 351.629,278.571 357.5,274.5C 359.297,273.27 361.297,272.604 363.5,272.5 Z"/></g>
<g><path style="opacity:1" fill="#030403" d="M 410.5,272.5 C 412.5,272.5 414.5,272.5 416.5,272.5C 417.398,273.158 418.398,273.824 419.5,274.5C 417.88,277.404 416.547,280.404 415.5,283.5C 411.278,281.863 407.278,282.197 403.5,284.5C 403,285.5 402.5,286.5 402,287.5C 401.5,293.825 401.334,300.158 401.5,306.5C 399.5,306.5 397.5,306.5 395.5,306.5C 393.833,306.5 392.167,306.5 390.5,306.5C 390.5,303.5 390.5,300.5 390.5,297.5C 390.5,289.5 390.5,281.5 390.5,273.5C 394.167,273.5 397.833,273.5 401.5,273.5C 401.343,274.873 401.51,276.207 402,277.5C 402.717,276.956 403.217,276.289 403.5,275.5C 405.645,274.011 407.978,273.011 410.5,272.5 Z"/></g>
<g><path style="opacity:1" fill="#cddfe0" d="M 102.5,265.5 C 102.408,269.059 103.241,272.392 105,275.5C 110.488,280.491 116.655,284.324 123.5,287C 126.08,289.544 126.08,292.044 123.5,294.5C 116.442,296.627 110.109,295.294 104.5,290.5C 101.693,293.784 99.6933,297.451 98.5,301.5C 97.8826,301.389 97.3826,301.056 97,300.5C 96.8002,296.247 96.3002,292.08 95.5,288C 97.7416,286.993 97.4082,286.159 94.5,285.5C 94.0825,284.778 93.4158,284.278 92.5,284C 94.2244,283.552 94.891,282.718 94.5,281.5C 96.0778,282.64 97.7445,283.14 99.5,283C 97.7605,281.483 96.0938,279.983 94.5,278.5C 99.1931,279.261 99.5265,278.094 95.5,275C 99.8531,275.152 100.52,273.319 97.5,269.5C 98.3554,268.707 99.1887,269.04 100,270.5C 100.374,268.509 101.207,266.842 102.5,265.5 Z"/></g>
<g><path style="opacity:1" fill="#6bbfa8" d="M 250.5,270.5 C 250.833,271.167 251.167,271.833 251.5,272.5C 248.599,273.536 246.099,275.203 244,277.5C 238.751,284.56 238.251,291.893 242.5,299.5C 240.167,299.5 237.833,299.5 235.5,299.5C 233.324,297.485 230.824,295.818 228,294.5C 227.617,295.056 227.117,295.389 226.5,295.5C 225.244,295.539 224.244,295.039 223.5,294C 225.491,293.626 227.158,292.793 228.5,291.5C 231.167,291.5 233.833,291.5 236.5,291.5C 237.013,285.706 235.346,280.706 231.5,276.5C 233.582,276.528 235.416,275.861 237,274.5C 237.667,273.833 237.667,273.167 237,272.5C 236.282,273.451 235.449,273.617 234.5,273C 236.339,271.868 238.339,271.035 240.5,270.5C 240.833,271 241.167,271.5 241.5,272C 240.728,273.221 239.728,274.221 238.5,275C 239,275.167 239.5,275.333 240,275.5C 243.613,273.942 247.113,272.275 250.5,270.5 Z"/></g>
<g><path style="opacity:1" fill="#81d6ca" d="M 224.5,282.5 C 224.631,283.376 224.298,284.043 223.5,284.5C 221.674,283.956 219.674,283.956 217.5,284.5C 215.667,284.415 214.334,283.748 213.5,282.5C 214.392,280.286 216.058,279.286 218.5,279.5C 221.102,279.467 223.102,280.467 224.5,282.5 Z"/></g>
<g><path style="opacity:1" fill="#bbde8e" d="M 364.5,279.5 C 369.709,278.396 372.709,280.396 373.5,285.5C 369.5,285.5 365.5,285.5 361.5,285.5C 361.461,282.911 362.461,280.911 364.5,279.5 Z"/></g>
<g><path style="opacity:1" fill="#3f8f92" d="M 181.5,273.5 C 177.833,273.5 174.167,273.5 170.5,273.5C 170.5,284.5 170.5,295.5 170.5,306.5C 169.922,307.547 169.256,307.38 168.5,306C 169.464,301.934 169.797,297.767 169.5,293.5C 165.865,292.886 162.198,292.552 158.5,292.5C 158.5,293.5 158.5,294.5 158.5,295.5C 157.514,291.03 157.181,286.363 157.5,281.5C 159.833,281.5 162.167,281.5 164.5,281.5C 162.735,282.461 160.735,282.795 158.5,282.5C 158.5,285.5 158.5,288.5 158.5,291.5C 162.215,291.423 165.881,291.756 169.5,292.5C 169.5,285.833 169.5,279.167 169.5,272.5C 173.702,272.183 177.702,272.517 181.5,273.5 Z"/></g>
<g><path style="opacity:1" fill="#62c1a5" d="M 257.5,281.5 C 265.696,281.529 268.863,285.529 267,293.5C 262.7,298.446 258.033,298.779 253,294.5C 251.243,288.825 252.743,284.492 257.5,281.5 Z"/></g>
<g><path style="opacity:1" fill="#eef3eb" d="M 415.5,283.5 C 403.787,322.894 377.454,342.228 336.5,341.5C 313.94,347.145 291.94,345.312 270.5,336C 263.635,331.979 256.635,328.146 249.5,324.5C 248.833,323.833 248.167,323.167 247.5,322.5C 256.422,326.288 265.422,330.121 274.5,334C 296.849,341.028 319.516,342.361 342.5,338C 343.942,337.623 344.942,336.79 345.5,335.5C 366.505,333.007 383.172,323.341 395.5,306.5C 397.5,306.5 399.5,306.5 401.5,306.5C 401.334,300.158 401.5,293.825 402,287.5C 402.5,286.5 403,285.5 403.5,284.5C 407.278,282.197 411.278,281.863 415.5,283.5 Z"/></g>
<g><path style="opacity:1" fill="#3f6661" d="M 213.5,282.5 C 214.334,283.748 215.667,284.415 217.5,284.5C 219.674,283.956 221.674,283.956 223.5,284.5C 224.298,284.043 224.631,283.376 224.5,282.5C 225.404,283.209 225.737,284.209 225.5,285.5C 221.167,285.5 216.833,285.5 212.5,285.5C 212.263,284.209 212.596,283.209 213.5,282.5 Z"/></g>
<g><path style="opacity:1" fill="#97e89d" d="M 319.5,306.5 C 321.588,308.336 322.921,310.669 323.5,313.5C 313.695,316.343 307.528,313.01 305,303.5C 301.92,301.923 299.753,299.59 298.5,296.5C 298.334,292.154 298.501,287.821 299,283.5C 302.619,280.657 305.952,280.99 309,284.5C 309.5,291.826 309.666,299.159 309.5,306.5C 312.833,306.5 316.167,306.5 319.5,306.5 Z"/></g>
<g><path style="opacity:1" fill="#b4f48a" d="M 331.5,284.5 C 331.5,289.833 331.5,295.167 331.5,300.5C 328.167,300.833 324.833,301.167 321.5,301.5C 321.5,295.833 321.5,290.167 321.5,284.5C 321.953,283.542 322.619,282.708 323.5,282C 326.927,280.834 329.593,281.668 331.5,284.5 Z"/></g>
<g><path style="opacity:1" fill="#353c2c" d="M 384.5,285.5 C 385.461,287.265 385.795,289.265 385.5,291.5C 381.5,291.5 377.5,291.5 373.5,291.5C 369.5,291.5 365.5,291.5 361.5,291.5C 361.5,292.5 361.5,293.5 361.5,294.5C 360.566,293.432 360.232,292.099 360.5,290.5C 368.5,290.5 376.5,290.5 384.5,290.5C 384.5,288.833 384.5,287.167 384.5,285.5 Z"/></g>
<g><path style="opacity:1" fill="#d5f7aa" d="M 373.5,291.5 C 372.256,295.412 369.589,297.412 365.5,297.5C 363.596,297.262 362.262,296.262 361.5,294.5C 361.5,293.5 361.5,292.5 361.5,291.5C 365.5,291.5 369.5,291.5 373.5,291.5 Z"/></g>
<g><path style="opacity:1" fill="#7ab6b2" d="M 228.5,291.5 C 227.158,292.793 225.491,293.626 223.5,294C 224.244,295.039 225.244,295.539 226.5,295.5C 224.085,298.406 221.085,299.073 217.5,297.5C 216.855,296.268 216.689,294.935 217,293.5C 214.254,297.333 212.754,296.666 212.5,291.5C 217.681,291.931 223.014,291.931 228.5,291.5 Z"/></g>
<g><path style="opacity:1" fill="#65d2d6" d="M 170.5,306.5 C 173.5,306.5 176.5,306.5 179.5,306.5C 179.281,307.675 179.614,308.675 180.5,309.5C 181.382,308.24 182.382,307.074 183.5,306C 182.269,304.817 182.269,303.651 183.5,302.5C 185.784,304.169 186.618,306.169 186,308.5C 186.889,307.112 187.389,307.278 187.5,309C 186.818,312.732 185.318,313.232 183,310.5C 179.638,313.732 179.638,314.398 183,312.5C 183.5,313 184,313.5 184.5,314C 183.265,316.179 181.931,317.513 180.5,318C 181.289,318.546 182.289,319.213 183.5,320C 180.859,322.015 178.692,321.515 177,318.5C 176.086,319.654 175.253,319.487 174.5,318C 175.673,314.89 175.173,314.723 173,317.5C 170.356,315.69 167.856,313.69 165.5,311.5C 165.167,311.667 164.833,311.833 164.5,312C 167.352,315.277 166.685,317.444 162.5,318.5C 157.408,315.744 153.741,311.744 151.5,306.5C 153.288,306.971 155.122,307.304 157,307.5C 165.842,307.68 167.842,304.013 163,296.5C 161.085,297.916 159.585,297.582 158.5,295.5C 158.5,294.5 158.5,293.5 158.5,292.5C 162.198,292.552 165.865,292.886 169.5,293.5C 169.797,297.767 169.464,301.934 168.5,306C 169.256,307.38 169.922,307.547 170.5,306.5 Z"/></g>
<g><path style="opacity:1" fill="#66b8bb" d="M 182.5,286.5 C 182.334,290.514 182.501,294.514 183,298.5C 188.994,296.725 195.161,296.058 201.5,296.5C 202.909,298.972 204.576,301.305 206.5,303.5C 204.606,304.048 202.94,305.048 201.5,306.5C 201.167,306.333 200.833,306.167 200.5,306C 201.5,305 202.5,304 203.5,303C 201.583,303.027 199.916,303.861 198.5,305.5C 198.167,305.333 197.833,305.167 197.5,305C 201.171,302.072 200.337,300.238 195,299.5C 194.5,299.833 194,300.167 193.5,300.5C 192.265,303.085 190.598,305.252 188.5,307C 189.244,309.155 190.244,311.155 191.5,313C 189.508,315.301 187.508,317.634 185.5,320C 189.549,321.315 193.049,320.148 196,316.5C 196.333,317.5 196.667,318.5 197,319.5C 204.651,311.475 205.151,311.809 198.5,320.5C 199.438,321.553 200.605,322.22 202,322.5C 204.112,321.614 206.278,321.614 208.5,322.5C 207.122,323.234 205.622,323.901 204,324.5C 198.29,322.458 192.624,322.458 187,324.5C 185.893,324.415 184.893,324.081 184,323.5C 181.874,325.377 179.374,326.377 176.5,326.5C 174.848,325.193 173.182,325.193 171.5,326.5C 170.287,326.253 169.62,325.586 169.5,324.5C 167.705,324.016 166.205,322.683 165,320.5C 164.667,321.167 164.333,321.833 164,322.5C 163.59,321.099 163.09,319.766 162.5,318.5C 166.685,317.444 167.352,315.277 164.5,312C 164.833,311.833 165.167,311.667 165.5,311.5C 167.856,313.69 170.356,315.69 173,317.5C 175.173,314.723 175.673,314.89 174.5,318C 175.253,319.487 176.086,319.654 177,318.5C 178.692,321.515 180.859,322.015 183.5,320C 182.289,319.213 181.289,318.546 180.5,318C 181.931,317.513 183.265,316.179 184.5,314C 184,313.5 183.5,313 183,312.5C 179.638,314.398 179.638,313.732 183,310.5C 185.318,313.232 186.818,312.732 187.5,309C 187.389,307.278 186.889,307.112 186,308.5C 186.618,306.169 185.784,304.169 183.5,302.5C 182.269,303.651 182.269,304.817 183.5,306C 182.382,307.074 181.382,308.24 180.5,309.5C 179.614,308.675 179.281,307.675 179.5,306.5C 181.15,300.062 182.15,293.395 182.5,286.5 Z"/></g>
<g><path style="opacity:1" fill="#8fdde0" d="M 141.5,281.5 C 143.167,281.5 144.833,281.5 146.5,281.5C 146.334,287.176 146.501,292.843 147,298.5C 147.738,301.648 149.238,304.315 151.5,306.5C 153.741,311.744 157.408,315.744 162.5,318.5C 163.09,319.766 163.59,321.099 164,322.5C 164.333,321.833 164.667,321.167 165,320.5C 166.205,322.683 167.705,324.016 169.5,324.5C 168.518,325.141 167.518,325.807 166.5,326.5C 163.826,325.31 161.16,324.476 158.5,324C 160.167,325.167 161.833,326.333 163.5,327.5C 161.736,328.639 160.07,329.639 158.5,330.5C 152.428,328.599 147.261,325.265 143,320.5C 139.314,315.129 136.148,309.462 133.5,303.5C 137.678,298.124 139.011,292.124 137.5,285.5C 139.969,286.569 142.302,287.902 144.5,289.5C 145.293,288.645 144.96,287.811 143.5,287C 145.107,285.951 145.773,284.451 145.5,282.5C 143.901,282.768 142.568,282.434 141.5,281.5 Z"/></g>
<g><path style="opacity:1" fill="#ecf7e0" d="M 390.5,297.5 C 390.5,300.5 390.5,303.5 390.5,306.5C 392.167,306.5 393.833,306.5 395.5,306.5C 383.172,323.341 366.505,333.007 345.5,335.5C 346.742,333.75 348.242,332.083 350,330.5C 350.667,329.833 350.667,329.167 350,328.5C 346.884,330.807 343.384,332.14 339.5,332.5C 339.918,331.778 340.584,331.278 341.5,331C 340.167,330.667 338.833,330.333 337.5,330C 338.056,329.617 338.389,329.117 338.5,328.5C 341.682,327.406 344.682,326.072 347.5,324.5C 364.998,320.468 378.831,310.801 389,295.5C 389.278,296.416 389.778,297.082 390.5,297.5 Z"/></g>
<g><path style="opacity:1" fill="#86d4d7" d="M 206.5,303.5 C 209.8,305.642 213.467,306.975 217.5,307.5C 216.734,310.48 215.901,313.48 215,316.5C 213.594,319.409 211.428,321.409 208.5,322.5C 206.278,321.614 204.112,321.614 202,322.5C 200.605,322.22 199.438,321.553 198.5,320.5C 205.151,311.809 204.651,311.475 197,319.5C 196.667,318.5 196.333,317.5 196,316.5C 193.049,320.148 189.549,321.315 185.5,320C 187.508,317.634 189.508,315.301 191.5,313C 190.244,311.155 189.244,309.155 188.5,307C 190.598,305.252 192.265,303.085 193.5,300.5C 194,300.167 194.5,299.833 195,299.5C 200.337,300.238 201.171,302.072 197.5,305C 197.833,305.167 198.167,305.333 198.5,305.5C 199.916,303.861 201.583,303.027 203.5,303C 202.5,304 201.5,305 200.5,306C 200.833,306.167 201.167,306.333 201.5,306.5C 202.94,305.048 204.606,304.048 206.5,303.5 Z"/></g>
<g><path style="opacity:1" fill="#85e1b2" d="M 285.5,265.5 C 285.767,267.965 286.434,270.299 287.5,272.5C 286.833,272.5 286.5,272.833 286.5,273.5C 286.5,284.5 286.5,295.5 286.5,306.5C 288.167,306.5 289.833,306.5 291.5,306.5C 291.082,307.222 290.416,307.722 289.5,308C 294.167,310.667 298.833,313.333 303.5,316C 302.099,316.41 300.766,316.91 299.5,317.5C 291.049,316.816 284.382,313.149 279.5,306.5C 279.334,296.161 279.5,285.828 280,275.5C 282.13,272.233 283.963,268.9 285.5,265.5 Z"/></g>
<g><path style="opacity:1" fill="#abe193" d="M 343.5,283.5 C 344.321,286.641 344.821,289.975 345,293.5C 346.113,292.695 347.279,292.028 348.5,291.5C 349.412,295.255 351.079,298.588 353.5,301.5C 351.896,302.287 351.229,303.62 351.5,305.5C 342.842,309.249 333.842,311.915 324.5,313.5C 324.167,313.5 323.833,313.5 323.5,313.5C 322.921,310.669 321.588,308.336 319.5,306.5C 320.167,299.167 320.833,291.833 321.5,284.5C 321.5,290.167 321.5,295.833 321.5,301.5C 324.833,301.167 328.167,300.833 331.5,300.5C 331.5,295.167 331.5,289.833 331.5,284.5C 332.492,291.648 332.825,298.981 332.5,306.5C 336.167,306.5 339.833,306.5 343.5,306.5C 343.5,298.833 343.5,291.167 343.5,283.5 Z"/></g>
<g><path style="opacity:1" fill="#aee3e5" d="M 133.5,303.5 C 136.148,309.462 139.314,315.129 143,320.5C 147.261,325.265 152.428,328.599 158.5,330.5C 157.884,332.417 156.55,333.584 154.5,334C 155.612,336.108 154.946,337.608 152.5,338.5C 140.251,338.087 132.084,332.087 128,320.5C 127.313,316.42 126.313,312.42 125,308.5C 124.329,307.748 123.496,307.414 122.5,307.5C 126.081,306.193 129.747,304.859 133.5,303.5 Z"/></g>
<g><path style="opacity:1" fill="#c3f2af" d="M 353.5,301.5 C 355.139,302.473 356.473,303.806 357.5,305.5C 354.829,308.161 351.829,310.494 348.5,312.5C 346.611,316.787 343.278,319.12 338.5,319.5C 334.343,321.062 330.01,321.729 325.5,321.5C 325.833,320.833 326.167,320.167 326.5,319.5C 329.111,319.354 331.111,318.188 332.5,316C 330.101,315.289 327.768,315.456 325.5,316.5C 324.614,315.675 324.281,314.675 324.5,313.5C 333.842,311.915 342.842,309.249 351.5,305.5C 351.229,303.62 351.896,302.287 353.5,301.5 Z"/></g>
<g><path style="opacity:1" fill="#b1e6ce" d="M 235.5,299.5 C 237.833,299.5 240.167,299.5 242.5,299.5C 245.414,304.458 249.747,307.124 255.5,307.5C 259.659,310.749 264.326,313.249 269.5,315C 277.918,317.681 286.251,320.181 294.5,322.5C 293.127,322.343 291.793,322.51 290.5,323C 292.788,323.822 295.122,324.489 297.5,325C 296.5,325.333 295.5,325.667 294.5,326C 298.753,327.973 303.087,329.473 307.5,330.5C 297.623,329.902 287.956,328.068 278.5,325C 266.514,319.83 254.514,314.997 242.5,310.5C 240.215,308.882 238.215,306.882 236.5,304.5C 235.264,303.754 233.93,303.421 232.5,303.5C 233.5,302.167 234.5,300.833 235.5,299.5 Z"/></g>
<g><path style="opacity:1" fill="#9fe3bc" d="M 278.5,306.5 C 278.833,306.5 279.167,306.5 279.5,306.5C 284.382,313.149 291.049,316.816 299.5,317.5C 300.609,318.29 301.942,318.79 303.5,319C 311.159,319.5 318.826,319.666 326.5,319.5C 326.167,320.167 325.833,320.833 325.5,321.5C 325.426,323.411 324.426,324.578 322.5,325C 320.167,325.167 317.833,325.333 315.5,325.5C 308.439,324.887 301.439,323.887 294.5,322.5C 286.251,320.181 277.918,317.681 269.5,315C 264.326,313.249 259.659,310.749 255.5,307.5C 259.761,307.455 263.595,306.122 267,303.5C 267.483,304.448 267.649,305.448 267.5,306.5C 271.167,306.5 274.833,306.5 278.5,306.5 Z"/></g>
<g><path style="opacity:1" fill="#caeff0" d="M 232.5,303.5 C 233.93,303.421 235.264,303.754 236.5,304.5C 238.215,306.882 240.215,308.882 242.5,310.5C 241.448,310.351 240.448,310.517 239.5,311C 242.074,313.362 244.741,315.529 247.5,317.5C 244.179,317.536 241.012,316.869 238,315.5C 236.93,315.528 236.097,315.861 235.5,316.5C 233.712,316.215 232.045,316.548 230.5,317.5C 221.118,337.71 205.452,349.877 183.5,354C 169.942,356.205 157.276,354.038 145.5,347.5C 148.91,343.762 152.91,340.762 157.5,338.5C 180.439,344.965 199.439,338.965 214.5,320.5C 216.433,316.296 218.099,311.963 219.5,307.5C 224.172,307.169 228.505,305.835 232.5,303.5 Z"/></g>
<g><path style="opacity:1" fill="#caecda" d="M 242.5,310.5 C 254.514,314.997 266.514,319.83 278.5,325C 287.956,328.068 297.623,329.902 307.5,330.5C 317.921,331.626 328.254,330.959 338.5,328.5C 338.389,329.117 338.056,329.617 337.5,330C 338.833,330.333 340.167,330.667 341.5,331C 340.584,331.278 339.918,331.778 339.5,332.5C 318.226,338.679 296.893,338.179 275.5,331C 265.717,327.274 256.384,322.774 247.5,317.5C 244.741,315.529 242.074,313.362 239.5,311C 240.448,310.517 241.448,310.351 242.5,310.5 Z"/></g>
<g><path style="opacity:1" fill="#a5e9ae" d="M 298.5,296.5 C 299.753,299.59 301.92,301.923 305,303.5C 307.528,313.01 313.695,316.343 323.5,313.5C 323.833,313.5 324.167,313.5 324.5,313.5C 324.281,314.675 324.614,315.675 325.5,316.5C 327.768,315.456 330.101,315.289 332.5,316C 331.111,318.188 329.111,319.354 326.5,319.5C 318.826,319.666 311.159,319.5 303.5,319C 301.942,318.79 300.609,318.29 299.5,317.5C 300.766,316.91 302.099,316.41 303.5,316C 298.833,313.333 294.167,310.667 289.5,308C 290.416,307.722 291.082,307.222 291.5,306.5C 293.833,306.5 296.167,306.5 298.5,306.5C 298.5,303.167 298.5,299.833 298.5,296.5 Z"/></g>
<g><path style="opacity:1" fill="#e0f6c8" d="M 390.5,273.5 C 390.5,281.5 390.5,289.5 390.5,297.5C 389.778,297.082 389.278,296.416 389,295.5C 378.831,310.801 364.998,320.468 347.5,324.5C 344.592,323.841 344.258,323.007 346.5,322C 344.701,320.298 342.701,320.131 340.5,321.5C 339.287,321.253 338.62,320.586 338.5,319.5C 343.278,319.12 346.611,316.787 348.5,312.5C 351.829,310.494 354.829,308.161 357.5,305.5C 368.08,309.815 377.08,307.648 384.5,299C 381.671,297.753 379.005,296.253 376.5,294.5C 373.376,298.174 369.709,299.174 365.5,297.5C 369.589,297.412 372.256,295.412 373.5,291.5C 377.5,291.5 381.5,291.5 385.5,291.5C 385.795,289.265 385.461,287.265 384.5,285.5C 384.567,284.041 384.234,282.708 383.5,281.5C 384.5,281.5 385.5,281.5 386.5,281.5C 390.305,265.381 387.138,250.714 377,237.5C 357.499,218.889 336.333,216.722 313.5,231C 311.866,231.494 310.199,231.66 308.5,231.5C 306.19,230.228 303.857,229.228 301.5,228.5C 302.729,227.719 304.062,227.219 305.5,227C 304.584,226.722 303.918,226.222 303.5,225.5C 304.873,225.657 306.207,225.49 307.5,225C 321.96,214.508 337.96,211.174 355.5,215C 382.56,224.567 396.227,243.734 396.5,272.5C 394.265,272.205 392.265,272.539 390.5,273.5 Z"/></g>
<g><path style="opacity:1" fill="#e0f2f3" d="M 101.5,303.5 C 104.406,304.787 107.406,305.787 110.5,306.5C 111.087,310.432 112.087,314.265 113.5,318C 112.371,322.079 112.204,326.245 113,330.5C 113.333,328.5 113.667,326.5 114,324.5C 117.032,329.52 120.032,334.52 123,339.5C 126.85,342.354 130.35,345.521 133.5,349C 133.167,349.333 132.833,349.667 132.5,350C 136.566,350.565 140.233,349.732 143.5,347.5C 144.167,347.5 144.833,347.5 145.5,347.5C 157.276,354.038 169.942,356.205 183.5,354C 205.452,349.877 221.118,337.71 230.5,317.5C 232.045,316.548 233.712,316.215 235.5,316.5C 239.118,319.053 243.118,321.053 247.5,322.5C 248.167,323.167 248.833,323.833 249.5,324.5C 246.882,324.221 244.382,323.554 242,322.5C 220.305,361.401 188.139,374.235 145.5,361C 136.071,355.898 126.905,350.398 118,344.5C 114.285,336.739 110.285,329.072 106,321.5C 103.57,315.715 102.07,309.715 101.5,303.5 Z"/></g>
<g><path style="opacity:1" fill="#a8eaed" d="M 217.5,307.5 C 218.167,307.5 218.833,307.5 219.5,307.5C 218.099,311.963 216.433,316.296 214.5,320.5C 199.439,338.965 180.439,344.965 157.5,338.5C 160.996,335.042 164.996,332.208 169.5,330C 168.5,329.667 167.5,329.333 166.5,329C 167.93,327.56 169.597,327.226 171.5,328C 170.304,328.654 170.304,329.154 171.5,329.5C 173.396,328.725 175.063,327.725 176.5,326.5C 179.374,326.377 181.874,325.377 184,323.5C 184.893,324.081 185.893,324.415 187,324.5C 192.624,322.458 198.29,322.458 204,324.5C 205.622,323.901 207.122,323.234 208.5,322.5C 211.428,321.409 213.594,319.409 215,316.5C 215.901,313.48 216.734,310.48 217.5,307.5 Z"/></g>
<g><path style="opacity:1" fill="#dbf0e5" d="M 235.5,316.5 C 236.097,315.861 236.93,315.528 238,315.5C 241.012,316.869 244.179,317.536 247.5,317.5C 256.384,322.774 265.717,327.274 275.5,331C 296.893,338.179 318.226,338.679 339.5,332.5C 343.384,332.14 346.884,330.807 350,328.5C 350.667,329.167 350.667,329.833 350,330.5C 348.242,332.083 346.742,333.75 345.5,335.5C 344.942,336.79 343.942,337.623 342.5,338C 319.516,342.361 296.849,341.028 274.5,334C 265.422,330.121 256.422,326.288 247.5,322.5C 243.118,321.053 239.118,319.053 235.5,316.5 Z"/></g>
<g><path style="opacity:1" fill="#c0ecc8" d="M 338.5,319.5 C 338.62,320.586 339.287,321.253 340.5,321.5C 342.701,320.131 344.701,320.298 346.5,322C 344.258,323.007 344.592,323.841 347.5,324.5C 344.682,326.072 341.682,327.406 338.5,328.5C 328.254,330.959 317.921,331.626 307.5,330.5C 303.087,329.473 298.753,327.973 294.5,326C 295.5,325.667 296.5,325.333 297.5,325C 295.122,324.489 292.788,323.822 290.5,323C 291.793,322.51 293.127,322.343 294.5,322.5C 301.439,323.887 308.439,324.887 315.5,325.5C 317.833,325.333 320.167,325.167 322.5,325C 324.426,324.578 325.426,323.411 325.5,321.5C 330.01,321.729 334.343,321.062 338.5,319.5 Z"/></g>
<g><path style="opacity:1" fill="#c8e4e5" d="M 110.5,306.5 C 114.452,307.272 118.452,307.605 122.5,307.5C 123.496,307.414 124.329,307.748 125,308.5C 126.313,312.42 127.313,316.42 128,320.5C 132.084,332.087 140.251,338.087 152.5,338.5C 152.38,339.586 151.713,340.253 150.5,340.5C 148.5,341 146.5,341.5 144.5,342C 145.833,342.333 147.167,342.667 148.5,343C 146.5,343.667 144.5,344.333 142.5,345C 144.619,345.342 144.953,346.175 143.5,347.5C 140.233,349.732 136.566,350.565 132.5,350C 132.833,349.667 133.167,349.333 133.5,349C 130.35,345.521 126.85,342.354 123,339.5C 120.032,334.52 117.032,329.52 114,324.5C 113.667,326.5 113.333,328.5 113,330.5C 112.204,326.245 112.371,322.079 113.5,318C 112.087,314.265 111.087,310.432 110.5,306.5 Z"/></g>
<g><path style="opacity:1" fill="#7aa4a6" d="M 169.5,324.5 C 169.62,325.586 170.287,326.253 171.5,326.5C 173.182,325.193 174.848,325.193 176.5,326.5C 175.063,327.725 173.396,328.725 171.5,329.5C 170.304,329.154 170.304,328.654 171.5,328C 169.597,327.226 167.93,327.56 166.5,329C 167.5,329.333 168.5,329.667 169.5,330C 164.996,332.208 160.996,335.042 157.5,338.5C 152.91,340.762 148.91,343.762 145.5,347.5C 144.833,347.5 144.167,347.5 143.5,347.5C 144.953,346.175 144.619,345.342 142.5,345C 144.5,344.333 146.5,343.667 148.5,343C 147.167,342.667 145.833,342.333 144.5,342C 146.5,341.5 148.5,341 150.5,340.5C 151.713,340.253 152.38,339.586 152.5,338.5C 154.946,337.608 155.612,336.108 154.5,334C 156.55,333.584 157.884,332.417 158.5,330.5C 160.07,329.639 161.736,328.639 163.5,327.5C 161.833,326.333 160.167,325.167 158.5,324C 161.16,324.476 163.826,325.31 166.5,326.5C 167.518,325.807 168.518,325.141 169.5,324.5 Z"/></g>
</svg>